<?xml version="1.0" encoding="utf-8"?>
<!-- Generator: Adobe Illustrator 19.2.1, SVG Export Plug-In . SVG Version: 6.00 Build 0)  -->
<svg version="1.1" id="Layer_1" xmlns="http://www.w3.org/2000/svg" xmlns:xlink="http://www.w3.org/1999/xlink" x="0px" y="0px"
	 viewBox="0 0 187.1 42.5" style="enable-background:new 0 0 187.1 42.5;" xml:space="preserve">
<style type="text/css">
	.st0{fill:#1AA5D1;}
</style>
<g>
	<path class="st0" d="M84.1,25.4l-6.3-1.6c-3.7-0.9-4.9-2.1-4.9-4.6c0-2.9,2.5-4.9,7.1-4.9c4.9,0,8.2,2.4,8.2,7h3
		c0-6.3-4.3-9.7-10.9-9.7c-6.4,0-10.3,3.1-10.3,7.8c0,4,2.2,5.9,6.9,7.1l6.3,1.6c4,1,5.5,2.1,5.5,4.7c0,3.1-2.9,5.3-7.7,5.3
		c-2.6,0-4.7-0.6-6.5-1.8s-2.7-3-2.7-5.4h-3c0,3.3,1.1,5.8,3.4,7.5s5.2,2.5,8.6,2.5c6.8,0,10.9-3.3,10.9-8.2
		C91.5,28.6,89.1,26.8,84.1,25.4z"/>
	<path class="st0" d="M131.4,11.6c-3.7,0-7.1,1.9-10.2,5.6c-1.3-3.6-4.3-5.6-8.1-5.6c-3.5,0-6.7,1.7-9.5,4.9v-4.2h-2.8v28h3V19.5
		c2.7-3.4,5.6-5.1,8.7-5.1c3.9,0,6.6,2.7,6.6,7.8v18.1h3V23c0-1.5-0.1-2.6-0.2-3.4c2.8-3.5,5.8-5.3,8.9-5.3c3.9,0,6.6,2.7,6.6,7.8
		v18.1h3V21.8C140.4,15.2,137,11.6,131.4,11.6z"/>
	<path class="st0" d="M176.8,11.6c-3.8,0-7.2,1.7-10,4.9v-4.2H164v28h3V19.5c2.8-3.4,5.9-5.1,9.4-5.1c4.2,0,7.1,2.8,7.1,8.1v17.8h3
		V22.1C186.4,15.4,182.5,11.6,176.8,11.6z"/>
	<path class="st0" d="M57.1,12.3v4.2c-2.9-3.2-6.3-4.9-10.1-4.9c-5.9,0-9.8,4-9.8,10.3v8.6c0,6.4,3.8,10.3,9.9,10.3
		c3.7,0,7-1.6,10-4.9v4.2h2.8v-28h-2.8V12.3z M56.9,33.1c-3.1,3.4-6.3,5.1-9.5,5.1c-4.6,0-7.3-3.1-7.3-7.8v-8.2
		c0-4.7,2.7-7.8,7.2-7.8c3.2,0,6.4,1.7,9.5,5.1L56.9,33.1L56.9,33.1z"/>
	<path class="st0" d="M150.5,7.6V1.5h3v6h-3V7.6z M150.5,40.3v-28h3v28H150.5z"/>
	<path class="st0" d="M25,1.8v27.3c0,5.7-3.8,9.2-9.4,9.2c-5.2,0-8.6-1.8-8.6-11.5v-6.3c0-1.4,1.7-1.4,1.7,0v6.3
		c0,6.8,1.7,9,3.7,9.4c1.2-2,2.7-4.1,2.7-11.1c0-5.5-3.8-10.3-5.9-12.6c-1-1.1-1.8-1.2-2.9-0.1c-2.1,2.1-5.7,6.7-5.7,13.4
		c0,9.3,5.8,15.3,15.1,15.3c7.5,0,12.5-4.2,12.5-11.9V1.8H25z"/>
</g>
</svg>
