<?xml version="1.0" encoding="utf-8"?>
<svg version="1.1" id="Layer_1" xmlns="http://www.w3.org/2000/svg" xmlns:xlink="http://www.w3.org/1999/xlink" x="0px" y="0px" width="93.5px" height="130.4px"
	 viewBox="0 0 93.5 130.4" style="enable-background:new 0 0 93.5px 130.4px;" xml:space="preserve">
<style type="text/css">
	.st0{fill:#010101;}
	.st1{fill:#00A4D3;}
</style>
<path class="st1" d="M81.9,0.9v89.4c0,18.7-12.6,29.9-30.7,29.9C34.1,120.1,23,114.4,23,82.6V62.2c0-4.6,5.6-4.6,5.6,0l0.2,20.5
	c0,22.1,5.4,29.4,12.2,30.7c3.8-6.5,8.9-13.3,8.9-36.2c0-18.1-12.4-33.8-19.4-41.2c-3.3-3.5-5.7-4.1-9.6-0.2
	C14,42.7,2.2,57.6,2.2,79.5c0,30.4,18.9,50,49.4,50c24.6,0,40.8-13.7,40.8-38.8V0.9H81.9z"/>
</svg>
