<?xml version="1.0" encoding="utf-8"?>
<!-- Generator: Adobe Illustrator 19.2.1, SVG Export Plug-In . SVG Version: 6.00 Build 0)  -->
<svg version="1.1" id="Layer_1" xmlns="http://www.w3.org/2000/svg" xmlns:xlink="http://www.w3.org/1999/xlink" x="0px" y="0px"
	 viewBox="0 0 541.4 541.4" style="enable-background:new 0 0 541.4 541.4;" xml:space="preserve">
<style type="text/css">
	.st0{fill:#00A4D3;stroke:#FFFFFF;stroke-width:0.4887;stroke-miterlimit:10;}
	.st1{fill:#010101;}
</style>
<path class="st0" d="M270.7,1.4C122.2,1.4,1.4,122.2,1.4,270.7S121.5,540,270.7,540S540,419.9,540,270.7S417.8,1.4,270.7,1.4z
	 M442.2,309.8c-4.7,4.7-9,9-16.2,9h-79.5c-11.5,0-20.5-9-20.5-20.5s9-20.5,20.5-20.5h48.2l-46-119L211.4,442.5
	c-4.7,6.8-11.5,11.5-18,11.5l0,0c-9,0-16.2-4.7-18-13.7L94.9,241.1c-4.7-11.5,0-23,11.5-27c11.5-4.7,23,0,27,11.5l62.2,155.3
	L332.9,97.2c4.7-6.8,11.5-11.5,18-11.5c9,0,16.2,4.7,18,13.7l75.5,189.8C447.3,295.8,447.3,305.5,442.2,309.8z"/>
<path class="st1" d="M-1181.3,3746.7c-14.1-34-34-63.4-60.1-88.4c-24.6-24.6-54-44.9-88.4-60.1c-34-15.6-69.5-21.4-108.6-21.4
	c-26.1,0-51.4,3.3-74.2,9.4c-22.8,6.2-46.7,15.6-66.6,27.9c-19.9,12.7-38.7,26.1-56.1,43.5s-30.8,35.5-43.5,56.1
	c-12.7,19.9-21.4,43.5-27.9,66.6c-6.2,23.2-9.4,48.2-9.4,74.2c0,26.1,3.3,51.4,9.4,74.2c6.2,23.2,15.6,46.7,27.9,66.6
	s26.1,38.7,43.5,56.1s35.5,30.8,56.1,43.5c19.9,12.7,43.5,21.4,66.6,27.9c23.2,6.2,48.2,9.4,74.2,9.4s51.4-3.3,74.2-9.4
	c23.2-6.2,46.7-15.6,66.6-27.9c19.9-12.7,38.7-26.1,56.1-43.5s30.8-35.5,43.5-56.1s21.4-43.5,27.9-66.6c6.2-23.2,9.4-48.2,9.4-74.2
	C-1159.2,3816.3-1165.7,3780.8-1181.3,3746.7z M-1409,4000.9c-40.2,0-76-15.6-99.2-44.9c-14.1-17.4-23.2-38.7-27.9-64.8h-27.9v-27.9
	h24.6c0-1.4,0-4.7,0-6.2c0-6.2,0-10.9,1.4-17.4h-26.1v-27.9h29.3c4.7-27.9,17.4-49.6,32.6-66.6c23.2-26.1,56.1-40.2,94.9-40.2
	c26.1,0,48.2,6.2,63.4,14.1l-10.9,40.2c-10.9-6.2-29.3-10.9-49.6-10.9c-21.4,0-42,8-56.1,24.6c-9.4,9.4-15.6,24.6-19.9,40.2h116.2
	v27.9h-120.9c-1.4,4.7-1.4,10.9-1.4,15.6c0,3.3,0,4.7,0,8h122.4v27.9h-116.2c3.3,18.8,9.4,32.6,18.8,43.5
	c15.6,17.4,35.5,23.2,58.7,23.2c21.4,0,42-8,52.9-12.7l9.4,38.7C-1356.1,3993-1380.8,4000.9-1409,4000.9z"/>
<path class="st1" d="M-1280.5,4757.3c0-4.7,0-8-3.3-12.7c-3.3-3.3-6.2-6.2-10.9-6.2l-218.3-24.6l-3.3-26.1c0-3.3-1.4-6.2-3.3-9.4
	c-1.4-3.3-4.7-4.7-8-4.7l-48.2-15.6c-4.7-1.4-8-1.4-12.7,1.4c-4.7,1.4-6.2,6.2-8,9.4c-1.4,4.7-1.4,8,1.4,12.7c1.4,4.7,4.7,6.2,9.4,8
	l37.3,12.7l14.1,133.6l-9.4,48.2c0,1.4,0,4.7,0,6.2c0,3.3,1.4,4.7,3.3,6.2c3.3,4.7,8,6.2,12.7,6.2h204.2c4.7,0,9.4-1.4,12.7-4.7
	s4.7-6.2,4.7-12.7c0-4.7-1.4-9.4-4.7-12.7c-3.3-3.3-8-4.7-12.7-4.7h-183.2l3.3-21.4h193.7c4.7,0,8-1.4,10.9-3.3
	c3.3-3.3,4.7-6.2,6.2-9.4L-1280.5,4757.3z M-1351.4,4961.6c8,0,14.1-3.3,18.8-8s8-10.9,8-18.8s-3.3-14.1-8-18.8
	c-4.7-4.7-10.9-8-18.8-8s-14.1,3.3-18.8,8c-4.7,4.7-8,10.9-8,18.8s3.3,14.1,8,18.8C-1365.6,4958.3-1359.4,4961.6-1351.4,4961.6z
	 M-1501.7,4961.6c8,0,14.1-3.3,18.8-8s8-10.9,8-18.8s-3.3-14.1-8-18.8c-4.7-4.7-10.9-8-18.8-8c-8,0-14.1,3.3-18.8,8
	c-4.7,4.7-8,10.9-8,18.8s3.3,14.1,8,18.8C-1514.4,4958.3-1508.2,4961.6-1501.7,4961.6z M-1438.3,4538.6c37.3,0,72.8,8,105.4,21.4
	c32.6,14.1,61.9,34,86.9,57.2c24.6,24.6,43.5,52.9,57.2,86.9c14.1,34,21.4,68.1,21.4,105.4c0,24.6-3.3,49.6-9.4,72.8
	c-6.2,23.2-15.6,44.9-27.9,64.8c-12.7,19.9-26.1,38.7-42,54c-17.4,17.4-34,30.8-54,42c-19.9,12.7-42,19.9-64.8,27.9
	c-23.2,6.2-46.7,9.4-72.8,9.4s-49.6-3.3-72.8-9.4c-23.2-6.2-44.9-15.6-64.8-27.9c-19.9-12.7-38.7-26.1-54-42
	c-17.4-17.4-30.8-34-42-54c-12.7-19.9-19.9-42-27.9-64.8c-6.2-23.2-9.4-46.7-9.4-72.8c0-24.6,3.3-49.6,9.4-72.8
	c6.2-23.2,15.6-44.9,27.9-64.8s26.1-38.7,42-54c17.4-17.4,34-30.8,54-42c19.9-12.7,42-19.9,64.8-27.9
	C-1486.5,4541.9-1463,4538.6-1438.3,4538.6z"/>
</svg>
